<svg xmlns="http://www.w3.org/2000/svg" viewBox="0 0 230.75 392.92"><defs><style>.cls-1{fill:#fff;}</style></defs><title>Asset 2</title><g id="Layer_2" data-name="Layer 2"><g id="Layer_1-2" data-name="Layer 1"><path class="cls-1" d="M38.68,0c7.08,2.22,12.07,7.24,17.14,12.32q83.34,83.48,166.82,166.81c6.84,6.82,10,14.56,6.91,23.89a25.86,25.86,0,0,1-6.09,9.54q-86.39,86.65-173,173.1c-9.7,9.68-22.25,9.64-32,.15-4.59-4.44-9.24-8.87-13.36-13.73-7-8.19-6.62-19.54.41-27.72,1.08-1.26,2.26-2.44,3.43-3.61Q79.27,270.36,149.68,200a31.94,31.94,0,0,0,4.4-4.65c-1.35-.73-3-1.2-4-2.24Q78.94,122.08,7.91,51c-8.83-8.84-10.6-21-3.33-29.3C12,13.24,19,4,30.24,0Z"/></g></g></svg>