<svg xmlns="http://www.w3.org/2000/svg" viewBox="0 0 68.29 306.59"><defs><style>.cls-1{fill:#fff;}</style></defs><title>Asset 1</title><g id="Layer_2" data-name="Layer 2"><g id="Layer_1-2" data-name="Layer 1"><path class="cls-1" d="M29.94,306.59c-5.94-1.4-11.65-3.25-16.6-7.08A34.11,34.11,0,0,1,2.51,259.74C8.16,245.82,23,236.87,37.43,238.63c16.1,2,28.17,13.43,30.4,28.89,2.68,18.58-9.47,35.24-28.11,38.56a7.91,7.91,0,0,0-1.38.51Z"/><path class="cls-1" d="M34.15,0A34.08,34.08,0,1,1,0,34.05,34.19,34.19,0,0,1,34.15,0Z"/><path class="cls-1" d="M34.18,187.37a34.08,34.08,0,1,1,34.11-34.11A34.22,34.22,0,0,1,34.18,187.37Z"/></g></g></svg>